<svg xmlns="http://www.w3.org/2000/svg" viewBox="0 0 1200 900" width="1200" height="900" role="img" aria-label="home-hub">
  <defs>
    <linearGradient id="bg" x1="0" y1="0" x2="1" y2="1">
      <stop offset="0%" stop-color="#0c1120"/>
      <stop offset="55%" stop-color="#07222a"/>
      <stop offset="100%" stop-color="#05070d"/>
    </linearGradient>
    <radialGradient id="g" cx="50%" cy="50%" r="50%">
      <stop offset="0%" stop-color="#a3e635" stop-opacity="0.9"/>
      <stop offset="100%" stop-color="#a3e635" stop-opacity="0"/>
    </radialGradient>
    <radialGradient id="v" cx="50%" cy="42%" r="70%">
      <stop offset="0%" stop-color="#ffffff" stop-opacity="0.16"/>
      <stop offset="100%" stop-color="#000000" stop-opacity="0"/>
    </radialGradient>
  </defs>
  <rect width="1200" height="900" fill="url(#bg)"/>
  <circle cx="989" cy="629" r="189" fill="url(#g)" opacity="0.19" /><circle cx="539" cy="795" r="161" fill="url(#g)" opacity="0.12" /><circle cx="642" cy="184" r="215" fill="url(#g)" opacity="0.17" /><circle cx="1007" cy="61" r="301" fill="url(#g)" opacity="0.22" /><circle cx="1131" cy="69" r="233" fill="url(#g)" opacity="0.20" /><circle cx="404" cy="151" r="418" fill="url(#g)" opacity="0.32" />
  <line x1="234" y1="31" x2="561" y2="6" stroke="#4d7c0f" stroke-width="1" opacity="0.14" /><line x1="825" y1="109" x2="1068" y2="58" stroke="#4d7c0f" stroke-width="1" opacity="0.14" /><line x1="253" y1="665" x2="825" y2="640" stroke="#4d7c0f" stroke-width="1" opacity="0.14" /><line x1="793" y1="26" x2="1093" y2="10" stroke="#4d7c0f" stroke-width="1" opacity="0.14" /><line x1="691" y1="822" x2="994" y2="811" stroke="#4d7c0f" stroke-width="1" opacity="0.14" /><line x1="1014" y1="882" x2="1545" y2="884" stroke="#4d7c0f" stroke-width="1" opacity="0.14" /><line x1="533" y1="160" x2="1046" y2="157" stroke="#4d7c0f" stroke-width="1" opacity="0.14" /><line x1="572" y1="296" x2="703" y2="237" stroke="#4d7c0f" stroke-width="1" opacity="0.14" /><line x1="821" y1="433" x2="1207" y2="474" stroke="#4d7c0f" stroke-width="1" opacity="0.14" /><line x1="457" y1="177" x2="799" y2="180" stroke="#4d7c0f" stroke-width="1" opacity="0.14" /><line x1="679" y1="265" x2="1139" y2="323" stroke="#4d7c0f" stroke-width="1" opacity="0.14" /><line x1="554" y1="177" x2="988" y2="233" stroke="#4d7c0f" stroke-width="1" opacity="0.14" /><line x1="692" y1="784" x2="869" y2="795" stroke="#4d7c0f" stroke-width="1" opacity="0.14" /><line x1="326" y1="781" x2="632" y2="758" stroke="#4d7c0f" stroke-width="1" opacity="0.14" />
  <rect width="1200" height="900" fill="url(#v)"/>
  <g transform="rotate(-8 600 450)" opacity="0.5">
    <ellipse cx="600" cy="450" rx="384" ry="144" fill="none" stroke="#a3e635" stroke-width="1.5" opacity="0.5"/>
    <ellipse cx="600" cy="450" rx="288" ry="99" fill="none" stroke="#12aee0" stroke-width="1.5" opacity="0.45"/>
  </g>
</svg>