<svg xmlns="http://www.w3.org/2000/svg" viewBox="0 0 1200 900" width="1200" height="900" role="img" aria-label="mini">
  <defs>
    <linearGradient id="bg" x1="0" y1="0" x2="1" y2="1">
      <stop offset="0%" stop-color="#0c1120"/>
      <stop offset="55%" stop-color="#062b3d"/>
      <stop offset="100%" stop-color="#05070d"/>
    </linearGradient>
    <radialGradient id="g" cx="50%" cy="50%" r="50%">
      <stop offset="0%" stop-color="#12aee0" stop-opacity="0.9"/>
      <stop offset="100%" stop-color="#12aee0" stop-opacity="0"/>
    </radialGradient>
    <radialGradient id="v" cx="50%" cy="42%" r="70%">
      <stop offset="0%" stop-color="#ffffff" stop-opacity="0.16"/>
      <stop offset="100%" stop-color="#000000" stop-opacity="0"/>
    </radialGradient>
  </defs>
  <rect width="1200" height="900" fill="url(#bg)"/>
  <circle cx="991" cy="460" r="144" fill="url(#g)" opacity="0.20" /><circle cx="528" cy="718" r="418" fill="url(#g)" opacity="0.11" /><circle cx="552" cy="113" r="350" fill="url(#g)" opacity="0.24" /><circle cx="585" cy="179" r="303" fill="url(#g)" opacity="0.24" /><circle cx="356" cy="529" r="196" fill="url(#g)" opacity="0.17" /><circle cx="1010" cy="642" r="425" fill="url(#g)" opacity="0.15" /><circle cx="721" cy="224" r="277" fill="url(#g)" opacity="0.21" />
  <line x1="838" y1="173" x2="1373" y2="156" stroke="#33c9f2" stroke-width="1" opacity="0.14" /><line x1="841" y1="81" x2="1070" y2="92" stroke="#33c9f2" stroke-width="1" opacity="0.14" /><line x1="625" y1="428" x2="1201" y2="436" stroke="#33c9f2" stroke-width="1" opacity="0.14" /><line x1="698" y1="301" x2="1157" y2="359" stroke="#33c9f2" stroke-width="1" opacity="0.14" /><line x1="179" y1="400" x2="537" y2="370" stroke="#33c9f2" stroke-width="1" opacity="0.14" /><line x1="997" y1="536" x2="1299" y2="516" stroke="#33c9f2" stroke-width="1" opacity="0.14" /><line x1="27" y1="236" x2="539" y2="258" stroke="#33c9f2" stroke-width="1" opacity="0.14" /><line x1="333" y1="585" x2="565" y2="554" stroke="#33c9f2" stroke-width="1" opacity="0.14" /><line x1="387" y1="411" x2="592" y2="353" stroke="#33c9f2" stroke-width="1" opacity="0.14" /><line x1="77" y1="266" x2="253" y2="318" stroke="#33c9f2" stroke-width="1" opacity="0.14" /><line x1="430" y1="23" x2="847" y2="42" stroke="#33c9f2" stroke-width="1" opacity="0.14" /><line x1="820" y1="542" x2="1365" y2="503" stroke="#33c9f2" stroke-width="1" opacity="0.14" /><line x1="1153" y1="633" x2="1395" y2="692" stroke="#33c9f2" stroke-width="1" opacity="0.14" /><line x1="750" y1="587" x2="1232" y2="576" stroke="#33c9f2" stroke-width="1" opacity="0.14" />
  <rect width="1200" height="900" fill="url(#v)"/>
  <g transform="rotate(20 600 450)" opacity="0.5">
    <ellipse cx="600" cy="450" rx="384" ry="144" fill="none" stroke="#12aee0" stroke-width="1.5" opacity="0.5"/>
    <ellipse cx="600" cy="450" rx="288" ry="99" fill="none" stroke="#0c6b95" stroke-width="1.5" opacity="0.45"/>
  </g>
</svg>