<svg xmlns="http://www.w3.org/2000/svg" viewBox="0 0 1200 900" width="1200" height="900" role="img" aria-label="powerbank-20k">
  <defs>
    <linearGradient id="bg" x1="0" y1="0" x2="1" y2="1">
      <stop offset="0%" stop-color="#0c1120"/>
      <stop offset="55%" stop-color="#2a1a2a"/>
      <stop offset="100%" stop-color="#05070d"/>
    </linearGradient>
    <radialGradient id="g" cx="50%" cy="50%" r="50%">
      <stop offset="0%" stop-color="#f43f5e" stop-opacity="0.9"/>
      <stop offset="100%" stop-color="#f43f5e" stop-opacity="0"/>
    </radialGradient>
    <radialGradient id="v" cx="50%" cy="42%" r="70%">
      <stop offset="0%" stop-color="#ffffff" stop-opacity="0.16"/>
      <stop offset="100%" stop-color="#000000" stop-opacity="0"/>
    </radialGradient>
  </defs>
  <rect width="1200" height="900" fill="url(#bg)"/>
  <circle cx="902" cy="163" r="388" fill="url(#g)" opacity="0.31" /><circle cx="687" cy="106" r="350" fill="url(#g)" opacity="0.21" /><circle cx="390" cy="409" r="266" fill="url(#g)" opacity="0.25" /><circle cx="968" cy="743" r="238" fill="url(#g)" opacity="0.31" /><circle cx="334" cy="583" r="144" fill="url(#g)" opacity="0.26" /><circle cx="916" cy="853" r="301" fill="url(#g)" opacity="0.29" /><circle cx="1195" cy="840" r="393" fill="url(#g)" opacity="0.20" /><circle cx="391" cy="210" r="338" fill="url(#g)" opacity="0.17" />
  <line x1="467" y1="180" x2="950" y2="232" stroke="#9f1239" stroke-width="1" opacity="0.14" /><line x1="567" y1="529" x2="756" y2="557" stroke="#9f1239" stroke-width="1" opacity="0.14" /><line x1="1068" y1="266" x2="1276" y2="276" stroke="#9f1239" stroke-width="1" opacity="0.14" /><line x1="17" y1="711" x2="301" y2="709" stroke="#9f1239" stroke-width="1" opacity="0.14" /><line x1="83" y1="577" x2="244" y2="637" stroke="#9f1239" stroke-width="1" opacity="0.14" /><line x1="718" y1="741" x2="1158" y2="794" stroke="#9f1239" stroke-width="1" opacity="0.14" /><line x1="652" y1="53" x2="1167" y2="91" stroke="#9f1239" stroke-width="1" opacity="0.14" /><line x1="651" y1="718" x2="947" y2="756" stroke="#9f1239" stroke-width="1" opacity="0.14" /><line x1="981" y1="787" x2="1511" y2="751" stroke="#9f1239" stroke-width="1" opacity="0.14" /><line x1="596" y1="178" x2="849" y2="209" stroke="#9f1239" stroke-width="1" opacity="0.14" /><line x1="464" y1="35" x2="602" y2="-6" stroke="#9f1239" stroke-width="1" opacity="0.14" /><line x1="577" y1="825" x2="1108" y2="830" stroke="#9f1239" stroke-width="1" opacity="0.14" /><line x1="297" y1="388" x2="500" y2="377" stroke="#9f1239" stroke-width="1" opacity="0.14" /><line x1="658" y1="166" x2="997" y2="108" stroke="#9f1239" stroke-width="1" opacity="0.14" />
  <rect width="1200" height="900" fill="url(#v)"/>
  <g transform="rotate(20 600 450)" opacity="0.5">
    <ellipse cx="600" cy="450" rx="384" ry="144" fill="none" stroke="#f43f5e" stroke-width="1.5" opacity="0.5"/>
    <ellipse cx="600" cy="450" rx="288" ry="99" fill="none" stroke="#12aee0" stroke-width="1.5" opacity="0.45"/>
  </g>
</svg>