<svg xmlns="http://www.w3.org/2000/svg" viewBox="0 0 1200 900" width="1200" height="900" role="img" aria-label="usb-c-hub">
  <defs>
    <linearGradient id="bg" x1="0" y1="0" x2="1" y2="1">
      <stop offset="0%" stop-color="#0c1120"/>
      <stop offset="55%" stop-color="#2a1a2a"/>
      <stop offset="100%" stop-color="#05070d"/>
    </linearGradient>
    <radialGradient id="g" cx="50%" cy="50%" r="50%">
      <stop offset="0%" stop-color="#f43f5e" stop-opacity="0.9"/>
      <stop offset="100%" stop-color="#f43f5e" stop-opacity="0"/>
    </radialGradient>
    <radialGradient id="v" cx="50%" cy="42%" r="70%">
      <stop offset="0%" stop-color="#ffffff" stop-opacity="0.16"/>
      <stop offset="100%" stop-color="#000000" stop-opacity="0"/>
    </radialGradient>
  </defs>
  <rect width="1200" height="900" fill="url(#bg)"/>
  <circle cx="369" cy="359" r="243" fill="url(#g)" opacity="0.30" /><circle cx="1111" cy="191" r="315" fill="url(#g)" opacity="0.27" /><circle cx="694" cy="271" r="265" fill="url(#g)" opacity="0.13" /><circle cx="412" cy="352" r="300" fill="url(#g)" opacity="0.31" /><circle cx="934" cy="201" r="222" fill="url(#g)" opacity="0.18" /><circle cx="627" cy="457" r="384" fill="url(#g)" opacity="0.27" /><circle cx="835" cy="125" r="278" fill="url(#g)" opacity="0.27" /><circle cx="809" cy="170" r="355" fill="url(#g)" opacity="0.26" />
  <line x1="690" y1="850" x2="955" y2="830" stroke="#9f1239" stroke-width="1" opacity="0.14" /><line x1="315" y1="771" x2="828" y2="719" stroke="#9f1239" stroke-width="1" opacity="0.14" /><line x1="857" y1="473" x2="1273" y2="444" stroke="#9f1239" stroke-width="1" opacity="0.14" /><line x1="788" y1="297" x2="1269" y2="250" stroke="#9f1239" stroke-width="1" opacity="0.14" /><line x1="806" y1="269" x2="917" y2="249" stroke="#9f1239" stroke-width="1" opacity="0.14" /><line x1="280" y1="7" x2="627" y2="-4" stroke="#9f1239" stroke-width="1" opacity="0.14" /><line x1="361" y1="820" x2="848" y2="763" stroke="#9f1239" stroke-width="1" opacity="0.14" /><line x1="402" y1="314" x2="679" y2="296" stroke="#9f1239" stroke-width="1" opacity="0.14" /><line x1="182" y1="281" x2="655" y2="339" stroke="#9f1239" stroke-width="1" opacity="0.14" /><line x1="1053" y1="662" x2="1459" y2="680" stroke="#9f1239" stroke-width="1" opacity="0.14" /><line x1="4" y1="73" x2="181" y2="28" stroke="#9f1239" stroke-width="1" opacity="0.14" /><line x1="637" y1="262" x2="768" y2="299" stroke="#9f1239" stroke-width="1" opacity="0.14" /><line x1="590" y1="782" x2="716" y2="766" stroke="#9f1239" stroke-width="1" opacity="0.14" /><line x1="940" y1="90" x2="1526" y2="111" stroke="#9f1239" stroke-width="1" opacity="0.14" />
  <rect width="1200" height="900" fill="url(#v)"/>
  <g transform="rotate(7 600 450)" opacity="0.5">
    <ellipse cx="600" cy="450" rx="384" ry="144" fill="none" stroke="#f43f5e" stroke-width="1.5" opacity="0.5"/>
    <ellipse cx="600" cy="450" rx="288" ry="99" fill="none" stroke="#12aee0" stroke-width="1.5" opacity="0.45"/>
  </g>
</svg>